<svg version="1.1" id="Layer_1" xmlns="http://www.w3.org/2000/svg" xmlns:xlink="http://www.w3.org/1999/xlink" x="0px" y="0px"
	 width="100%" viewBox="0 0 1024 1024" enable-background="new 0 0 1024 1024" xml:space="preserve">
<path fill="#FEFDFE" opacity="1.000000" stroke="none" 
	d="
M671.000000,1025.000000 
	C447.333344,1025.000000 224.166672,1025.000000 1.000000,1025.000000 
	C1.000000,683.666687 1.000000,342.333344 1.000000,1.000000 
	C342.333344,1.000000 683.666687,1.000000 1025.000000,1.000000 
	C1025.000000,342.333344 1025.000000,683.666687 1025.000000,1025.000000 
	C907.166687,1025.000000 789.333313,1025.000000 671.000000,1025.000000 
M534.352234,254.342743 
	C534.774902,252.246918 535.345459,250.168411 535.593567,248.052109 
	C536.477539,240.513092 537.445801,232.938110 533.161133,225.261658 
	C530.543152,216.405289 523.709595,212.876663 515.381897,211.562637 
	C507.440186,210.309494 497.931519,214.977921 494.045105,221.736893 
	C488.525696,231.335770 488.646942,241.799286 491.389160,251.810181 
	C496.080353,268.936066 501.874542,285.763733 507.451080,302.635468 
	C507.887085,303.954498 510.125580,305.147400 511.730438,305.520111 
	C516.110046,306.537262 518.886719,304.902344 519.881409,300.127594 
	C520.621887,296.573242 522.244080,293.211304 523.323120,289.717224 
	C526.896057,278.146973 530.400818,266.555664 534.352234,254.342743 
M585.334229,482.767181 
	C567.344543,482.732971 549.354858,482.704865 531.365173,482.663208 
	C497.050110,482.583710 462.734894,482.521912 428.420166,482.367188 
	C425.471619,482.353912 424.066528,483.173157 424.316833,486.321381 
	C424.509338,488.742279 424.355194,491.190735 424.355194,494.147217 
	C421.732727,494.147217 419.771088,494.141510 417.809509,494.148773 
	C415.809845,494.156158 413.806854,494.106445 411.811310,494.204285 
	C406.368011,494.471222 403.369232,497.101013 403.410614,501.482605 
	C403.450714,505.726776 406.681335,508.463226 411.997009,508.587433 
	C415.952881,508.679871 419.912628,508.605652 424.051544,508.605652 
	C424.348999,510.637085 424.749573,512.094177 424.746307,513.550415 
	C424.716919,526.710754 425.015961,539.888428 424.440735,553.026978 
	C423.644348,571.217834 435.403839,584.105469 453.657196,584.119446 
	C492.817596,584.149475 531.978210,584.194397 571.138184,584.064270 
	C575.218567,584.050720 579.594482,583.644470 583.317383,582.141968 
	C594.444092,577.651428 600.246521,569.188293 600.210999,556.959106 
	C600.164673,541.010986 600.199646,525.062622 600.199646,508.706116 
	C604.808044,508.706116 608.777100,508.704102 612.746155,508.706604 
	C618.901672,508.710449 622.063049,506.276337 622.079102,501.516479 
	C622.094727,496.876343 618.816956,494.279297 612.731995,494.201569 
	C608.663452,494.149597 604.593628,494.191650 600.086731,494.191650 
	C600.086731,489.804230 600.086731,486.368408 600.086731,482.763458 
	C595.171265,482.763458 590.712524,482.763458 585.334229,482.767181 
M284.500000,519.804382 
	C301.826263,519.793152 319.152679,519.738708 336.478668,519.801331 
	C340.776886,519.816833 343.772400,518.426270 343.857666,513.719238 
	C344.008484,505.391785 344.015533,497.059814 343.940063,488.731049 
	C343.906006,484.971161 341.900299,482.910645 337.997650,482.855652 
	C332.502594,482.778229 327.008423,482.544586 321.513794,482.540894 
	C295.358154,482.523224 269.202423,482.530518 243.046936,482.601013 
	C236.840424,482.617767 236.043427,483.534912 236.041672,489.500000 
	C236.039459,496.996826 236.009048,504.493774 236.038406,511.990479 
	C236.063721,518.456909 237.422241,519.809387 244.016251,519.821594 
	C257.177460,519.846008 270.338745,519.812805 284.500000,519.804382 
M488.025635,787.436401 
	C488.203491,795.821411 490.194824,803.659668 495.896210,810.031067 
	C502.648346,817.576355 511.285156,820.007629 520.854309,817.061829 
	C532.006714,813.628662 537.027710,804.710999 538.807068,793.916870 
	C541.396790,778.206787 535.819336,764.336426 527.746643,751.392334 
	C523.066833,743.888489 521.057373,735.995056 521.079407,727.274658 
	C521.166809,692.633362 521.116394,657.991699 521.109985,623.350220 
	C521.109619,621.352844 521.278748,619.318359 520.965942,617.365723 
	C520.282043,613.096313 517.484802,611.038208 513.268311,611.096558 
	C508.963379,611.156006 506.482269,613.477539 505.997772,617.772766 
	C505.849274,619.089233 505.948883,620.434692 505.949463,621.766846 
	C505.963348,654.909424 505.631836,688.057556 506.166748,721.191772 
	C506.378937,734.332520 503.698669,746.026245 496.673950,757.163757 
	C491.121613,765.966858 488.140991,775.905762 488.025635,787.436401 
M734.579163,486.003906 
	C731.775879,486.003906 728.972656,486.003906 725.744629,486.003906 
	C725.744629,498.907288 725.744629,511.300476 725.744629,523.693787 
	C726.461548,523.872681 726.936768,524.093018 727.413147,524.095459 
	C757.074768,524.249939 786.736389,524.382202 816.398071,524.529724 
	C820.813904,524.551697 822.737793,522.212463 822.755432,517.990845 
	C822.793762,508.824554 822.847351,499.658264 822.851562,490.491974 
	C822.852234,489.060913 822.625854,487.629730 822.487671,486.000336 
	C793.199768,486.000336 764.380127,486.000336 734.579163,486.003906 
M505.500000,473.905945 
	C536.721863,473.905945 567.943787,473.905945 599.697205,473.905945 
	C597.432007,467.845184 593.491516,464.133362 588.517944,462.253296 
	C581.713257,459.681030 574.645630,457.301514 567.484192,456.261139 
	C532.518433,451.181671 497.401215,452.059692 462.382263,455.461884 
	C453.288666,456.345367 444.335480,459.691223 435.585052,462.686737 
	C430.770752,464.334839 427.370148,468.336029 425.325012,473.904816 
	C452.234650,473.904816 478.367340,473.904816 505.500000,473.905945 
M195.884262,490.533691 
	C197.201355,485.768097 198.518448,481.002502 199.840851,476.217651 
	C192.418564,474.721008 192.421890,474.779297 190.654602,481.360870 
	C188.112366,490.828308 185.456421,500.265259 182.549210,510.801697 
	C179.091400,499.605804 175.839905,489.497314 172.902023,479.298431 
	C172.069412,476.407990 170.422546,475.175140 167.943405,476.072662 
	C166.341705,476.652527 164.535919,478.354614 164.010910,479.946136 
	C160.853241,489.518402 158.039749,499.204224 155.111008,508.852020 
	C151.511658,499.627838 148.545822,490.602814 146.470169,481.377563 
	C145.201797,475.740204 142.368179,474.956238 137.384689,476.515015 
	C137.673813,477.805267 137.881104,479.077515 138.245468,480.303009 
	C142.086624,493.222382 146.064148,506.102814 149.726532,519.072388 
	C150.546417,521.975830 151.610779,523.098328 154.736526,523.123596 
	C157.903931,523.149353 158.483887,521.570374 159.192871,519.080383 
	C161.949097,509.400269 164.941010,499.787201 167.845215,490.149200 
	C171.986237,499.763306 175.120636,509.230469 177.902771,518.800049 
	C178.762878,521.758484 179.774475,523.114380 183.167282,523.278992 
	C186.737778,523.452148 186.804504,521.251526 187.448944,519.084351 
	C190.200562,509.830933 192.948959,500.576569 195.884262,490.533691 
M718.384949,499.170258 
	C718.384949,495.229156 718.384949,491.288055 718.384949,486.868530 
	C698.274231,486.868530 679.004700,486.818542 659.735657,486.897400 
	C653.519531,486.922852 650.087097,490.279205 650.082886,495.869690 
	C650.078735,501.405914 653.602234,504.843109 659.767639,504.870911 
	C677.246094,504.949738 694.725403,504.851410 712.203918,504.924469 
	C715.770935,504.939362 717.970764,503.693420 718.384949,499.170258 
M516.972290,163.465622 
	C512.158264,156.879868 507.093018,150.458801 502.627075,143.644943 
	C500.055054,139.720764 497.145477,139.569290 493.481445,140.711807 
	C493.481445,156.387634 493.481445,171.766190 493.481445,187.078003 
	C495.839325,187.078003 497.737457,187.078003 500.230194,187.078003 
	C500.230194,175.718872 500.230194,164.759735 500.230194,152.654022 
	C508.310638,163.819717 515.772705,173.829376 522.867981,184.092606 
	C525.487854,187.882248 528.397888,188.154434 532.175476,186.867462 
	C532.175476,171.243408 532.175476,155.873154 532.175476,140.475220 
	C529.752502,140.475220 527.819397,140.475220 525.058411,140.475220 
	C525.058411,151.339233 525.058411,161.969604 525.058411,172.599960 
	C524.700317,172.649323 524.342163,172.698669 523.984070,172.748032 
	C521.781372,169.851593 519.578735,166.955154 516.972290,163.465622 
M513.398987,308.001129 
	C506.953583,308.445221 504.983337,310.400421 504.976532,316.469391 
	C504.961456,329.943054 504.963409,343.416687 504.978607,356.890350 
	C504.985962,363.397461 507.707703,366.936584 512.693481,367.004425 
	C517.998840,367.076630 521.022156,363.450409 521.075928,356.917450 
	C521.186768,343.447021 521.332336,329.976593 521.366821,316.505920 
	C521.378906,311.773834 519.394409,308.488312 513.398987,308.001129 
M880.558228,480.986908 
	C880.643860,479.088501 880.729553,477.190094 880.820618,475.170685 
	C870.159729,475.170685 860.083801,475.170685 849.857971,475.170685 
	C849.857971,491.139008 849.857971,506.814972 849.857971,522.449707 
	C860.726868,522.449707 871.141479,522.449707 881.666504,522.449707 
	C881.666504,520.197388 881.666504,518.302612 881.666504,515.954407 
	C874.550964,515.954407 867.756287,516.089478 860.975891,515.838440 
	C859.646790,515.789246 857.372803,514.366333 857.252136,513.369141 
	C856.804199,509.667206 857.073608,505.878448 857.073608,501.470825 
	C864.716675,501.470825 871.618286,501.470825 878.401855,501.470825 
	C878.401855,498.915558 878.401855,497.033813 878.401855,494.590485 
	C871.197571,494.590485 864.421021,494.590485 857.448853,494.590485 
	C857.448853,490.001465 857.448853,485.988342 857.448853,481.462128 
	C865.207642,481.462128 872.513550,481.462128 880.558228,480.986908 
M506.535370,857.088989 
	C502.416473,852.290833 503.547546,847.191711 509.600311,846.577637 
	C515.114868,846.018127 520.834106,847.475220 526.463074,848.043518 
	C526.521973,848.576782 526.580872,849.110046 526.639832,849.643311 
	C527.803711,848.161255 528.967590,846.679260 530.189209,845.123779 
	C525.403015,840.666443 520.219543,839.007996 514.309631,838.976013 
	C503.629791,838.918152 497.026398,843.115906 496.172943,850.730896 
	C495.251892,858.948730 500.270630,864.292603 511.092896,866.814758 
	C513.996094,867.491394 517.123352,868.027466 519.574097,869.550903 
	C521.368286,870.666077 523.391357,873.419006 523.194702,875.209351 
	C522.963074,877.317993 520.827332,879.990601 518.820435,880.929932 
	C516.458069,882.035522 513.188538,882.211609 510.599121,881.592163 
	C506.493378,880.609802 502.625641,878.632568 498.167297,876.884094 
	C497.245239,878.057983 495.972870,879.677856 494.747040,881.238464 
	C500.757050,887.353638 510.067444,890.051086 518.576599,888.430115 
	C525.943970,887.026611 530.614563,882.169739 531.009094,875.501526 
	C531.419983,868.556885 528.170776,864.260437 520.506165,861.734314 
	C516.086670,860.277649 511.637543,858.910828 506.535370,857.088989 
M371.716583,495.507599 
	C364.413208,494.876678 357.109833,494.245758 349.443390,493.583466 
	C349.443390,499.636505 349.443390,504.517578 349.443390,509.999359 
	C355.337402,509.999359 360.937439,509.884583 366.530029,510.038727 
	C370.407684,510.145538 373.464569,509.014496 374.962555,505.267456 
	C376.432068,501.591583 375.345734,498.456940 371.716583,495.507599 
M509.229645,407.179474 
	C515.394775,413.950623 518.221436,421.467255 513.414612,430.947754 
	C524.244507,425.760193 527.619934,414.873840 521.316223,406.446106 
	C516.104065,399.477722 510.283722,393.036499 515.266724,382.779938 
	C505.657715,388.598969 503.671753,397.139862 509.229645,407.179474 
M221.595581,494.214966 
	C219.440460,494.310059 217.232819,494.141663 215.141800,494.558411 
	C211.477753,495.288635 209.212875,497.678650 209.118973,501.487732 
	C209.023880,505.345825 210.808090,508.886871 214.609116,509.404358 
	C219.902130,510.124939 225.366653,509.585754 230.717789,509.585754 
	C230.717789,504.260590 230.717789,499.502716 230.717789,494.212708 
	C227.779465,494.212708 225.159760,494.212708 221.595581,494.214966 
M526.814270,447.123169 
	C527.545410,443.284027 526.085449,439.786469 522.469116,439.324554 
	C516.481445,438.559692 510.205353,438.338226 504.283417,439.308136 
	C499.407043,440.106781 498.315765,446.302795 501.775116,449.591614 
	C504.777191,452.445587 523.829468,451.136444 526.814270,447.123169 
M476.252045,410.709991 
	C477.450592,414.255646 477.942078,418.293488 479.995789,421.243866 
	C484.197296,427.279755 486.099731,433.265747 482.613800,440.458038 
	C491.972107,436.670288 495.194794,427.563995 489.598755,420.087555 
	C484.813934,413.694946 480.286621,407.640808 485.111725,398.315002 
	C479.462280,401.292755 477.174042,405.080688 476.252045,410.709991 
M547.099609,436.589233 
	C546.664673,439.149628 546.229797,441.709991 545.794495,444.270325 
	C554.691650,440.720123 557.006714,430.719208 550.241516,422.661285 
	C545.554993,417.079285 543.177002,411.516815 546.866028,404.222168 
	C538.343140,408.161591 536.236572,416.615265 541.083069,424.469666 
	C543.317078,428.090179 545.088013,431.996429 547.099609,436.589233 
z"/>
<path fill="#E0AC42" opacity="1.000000" stroke="none" 
	d="
M585.794006,482.765320 
	C590.712524,482.763458 595.171265,482.763458 600.086731,482.763458 
	C600.086731,486.368408 600.086731,489.804230 600.086731,494.191650 
	C604.593628,494.191650 608.663452,494.149597 612.731995,494.201569 
	C618.816956,494.279297 622.094727,496.876343 622.079102,501.516479 
	C622.063049,506.276337 618.901672,508.710449 612.746155,508.706604 
	C608.777100,508.704102 604.808044,508.706116 600.199646,508.706116 
	C600.199646,525.062622 600.164673,541.010986 600.210999,556.959106 
	C600.246521,569.188293 594.444092,577.651428 583.317383,582.141968 
	C579.594482,583.644470 575.218567,584.050720 571.138184,584.064270 
	C531.978210,584.194397 492.817596,584.149475 453.657196,584.119446 
	C435.403839,584.105469 423.644348,571.217834 424.440735,553.026978 
	C425.015961,539.888428 424.716919,526.710754 424.746307,513.550415 
	C424.749573,512.094177 424.348999,510.637085 424.051544,508.605652 
	C419.912628,508.605652 415.952881,508.679871 411.997009,508.587433 
	C406.681335,508.463226 403.450714,505.726776 403.410614,501.482605 
	C403.369232,497.101013 406.368011,494.471222 411.811310,494.204285 
	C413.806854,494.106445 415.809845,494.156158 417.809509,494.148773 
	C419.771088,494.141510 421.732727,494.147217 424.355194,494.147217 
	C424.355194,491.190735 424.509338,488.742279 424.316833,486.321381 
	C424.066528,483.173157 425.471619,482.353912 428.420166,482.367188 
	C462.734894,482.521912 497.050110,482.583710 531.365173,482.663208 
	C549.354858,482.704865 567.344543,482.732971 585.794006,482.765320 
M514.989502,570.449280 
	C534.669495,566.469910 543.570068,549.918213 535.100952,531.756775 
	C531.191956,523.374329 525.949036,515.566162 520.825928,507.818359 
	C518.362000,504.092010 514.773193,501.109497 511.994263,498.114105 
	C508.238098,503.935974 504.914398,509.059998 501.619141,514.202271 
	C498.032043,519.799927 494.089050,525.210632 490.968872,531.058960 
	C480.527191,550.630432 492.300415,570.497437 514.989502,570.449280 
z"/>
<path fill="#E1AC44" opacity="1.000000" stroke="none" 
	d="
M284.000000,519.803833 
	C270.338745,519.812805 257.177460,519.846008 244.016251,519.821594 
	C237.422241,519.809387 236.063721,518.456909 236.038406,511.990479 
	C236.009048,504.493774 236.039459,496.996826 236.041672,489.500000 
	C236.043427,483.534912 236.840424,482.617767 243.046936,482.601013 
	C269.202423,482.530518 295.358154,482.523224 321.513794,482.540894 
	C327.008423,482.544586 332.502594,482.778229 337.997650,482.855652 
	C341.900299,482.910645 343.906006,484.971161 343.940063,488.731049 
	C344.015533,497.059814 344.008484,505.391785 343.857666,513.719238 
	C343.772400,518.426270 340.776886,519.816833 336.478668,519.801331 
	C319.152679,519.738708 301.826263,519.793152 284.000000,519.803833 
z"/>
<path fill="#E1AD45" opacity="1.000000" stroke="none" 
	d="
M488.025208,786.968628 
	C488.140991,775.905762 491.121613,765.966858 496.673950,757.163757 
	C503.698669,746.026245 506.378937,734.332520 506.166748,721.191772 
	C505.631836,688.057556 505.963348,654.909424 505.949463,621.766846 
	C505.948883,620.434692 505.849274,619.089233 505.997772,617.772766 
	C506.482269,613.477539 508.963379,611.156006 513.268311,611.096558 
	C517.484802,611.038208 520.282043,613.096313 520.965942,617.365723 
	C521.278748,619.318359 521.109619,621.352844 521.109985,623.350220 
	C521.116394,657.991699 521.166809,692.633362 521.079407,727.274658 
	C521.057373,735.995056 523.066833,743.888489 527.746643,751.392334 
	C535.819336,764.336426 541.396790,778.206787 538.807068,793.916870 
	C537.027710,804.710999 532.006714,813.628662 520.854309,817.061829 
	C511.285156,820.007629 502.648346,817.576355 495.896210,810.031067 
	C490.194824,803.659668 488.203491,795.821411 488.025208,786.968628 
M531.718262,785.545837 
	C531.078735,777.137573 529.831604,768.944641 523.340881,762.689270 
	C517.451416,757.013367 509.565277,757.102539 503.781433,762.876709 
	C494.674805,771.968018 492.979553,792.021484 500.435608,802.453308 
	C507.285217,812.036560 519.930603,812.547791 526.355164,802.695312 
	C529.372559,798.067871 530.003540,791.884399 531.718262,785.545837 
z"/>
<path fill="#E1AD43" opacity="1.000000" stroke="none" 
	d="
M735.069824,486.002136 
	C764.380127,486.000336 793.199768,486.000336 822.487671,486.000336 
	C822.625854,487.629730 822.852234,489.060913 822.851562,490.491974 
	C822.847351,499.658264 822.793762,508.824554 822.755432,517.990845 
	C822.737793,522.212463 820.813904,524.551697 816.398071,524.529724 
	C786.736389,524.382202 757.074768,524.249939 727.413147,524.095459 
	C726.936768,524.093018 726.461548,523.872681 725.744629,523.693787 
	C725.744629,511.300476 725.744629,498.907288 725.744629,486.003906 
	C728.972656,486.003906 731.775879,486.003906 735.069824,486.002136 
M814.606689,514.645020 
	C813.651062,514.074829 812.702393,513.024048 811.738647,513.010010 
	C803.452759,512.888916 795.160645,512.838867 786.880493,513.095581 
	C785.688232,513.132507 784.550049,514.915161 783.386841,515.889954 
	C784.523132,516.881531 785.633606,518.695435 786.799927,518.732117 
	C794.748596,518.982361 802.715820,519.027100 810.659180,518.700989 
	C812.094788,518.642029 813.447449,516.565063 814.606689,514.645020 
z"/>
<path fill="#E2AE46" opacity="1.000000" stroke="none" 
	d="
M505.000000,473.905396 
	C478.367340,473.904816 452.234650,473.904816 425.325012,473.904816 
	C427.370148,468.336029 430.770752,464.334839 435.585052,462.686737 
	C444.335480,459.691223 453.288666,456.345367 462.382263,455.461884 
	C497.401215,452.059692 532.518433,451.181671 567.484192,456.261139 
	C574.645630,457.301514 581.713257,459.681030 588.517944,462.253296 
	C593.491516,464.133362 597.432007,467.845184 599.697205,473.905945 
	C567.943787,473.905945 536.721863,473.905945 505.000000,473.905396 
z"/>
<path fill="#E3B14C" opacity="1.000000" stroke="none" 
	d="
M533.931702,254.972458 
	C530.400818,266.555664 526.896057,278.146973 523.323120,289.717224 
	C522.244080,293.211304 520.621887,296.573242 519.881409,300.127594 
	C518.886719,304.902344 516.110046,306.537262 511.730438,305.520111 
	C510.125580,305.147400 507.887085,303.954498 507.451080,302.635468 
	C501.874542,285.763733 496.080353,268.936066 491.389160,251.810181 
	C488.646942,241.799286 488.525696,231.335770 494.045105,221.736893 
	C497.931519,214.977921 507.440186,210.309494 515.381897,211.562637 
	C523.709595,212.876663 530.543152,216.405289 533.033875,225.960632 
	C532.261597,227.106979 531.616577,227.554352 530.782227,227.718689 
	C528.075806,224.607361 525.558838,221.779053 522.937012,218.726730 
	C522.590881,218.268005 522.309937,218.099396 521.909851,217.920441 
	C521.830444,217.843979 521.642944,217.843658 521.642944,217.843658 
	C521.642944,217.843658 522.051025,217.942810 522.045410,218.215332 
	C522.293030,218.724304 522.546204,218.960739 522.777466,219.585999 
	C523.539001,222.511414 524.605957,224.998505 525.058777,227.592789 
	C527.526978,241.732712 526.105957,255.753738 523.501587,269.723877 
	C523.014648,272.335938 522.678833,274.976135 522.273254,277.603363 
	C522.857849,277.708588 523.442444,277.813843 524.027039,277.919067 
	C526.628174,268.930603 529.229309,259.942169 532.114319,251.143707 
	C532.909363,252.546631 533.420532,253.759552 533.931702,254.972458 
M502.198730,218.985718 
	C496.807892,222.855347 494.474792,228.357574 493.939240,234.743362 
	C492.874176,247.443054 496.137024,259.426086 500.148224,271.271362 
	C501.090668,274.054413 502.082336,276.820801 503.051392,279.594849 
	C503.605530,275.276764 503.063141,271.253784 502.446991,267.242157 
	C499.977692,251.164993 497.081818,235.085556 503.568451,218.956665 
	C503.529205,218.710480 503.489960,218.464279 503.450745,218.218109 
	C503.257568,218.432877 503.064423,218.647644 502.198730,218.985718 
M511.965729,278.489960 
	C511.585571,258.287415 511.205414,238.084839 510.825256,217.882294 
	C510.315430,217.700592 509.805573,217.518906 509.295715,217.337219 
	C507.540955,221.245972 504.614807,225.054382 504.269653,229.083878 
	C503.496918,238.104706 503.151428,247.336700 504.208038,256.296814 
	C505.627869,268.336823 508.534332,280.201477 510.802612,292.141418 
	C511.192474,292.073090 511.582336,292.004761 511.972198,291.936432 
	C511.972198,287.785492 511.972198,283.634583 511.965729,278.489960 
M522.744873,233.129730 
	C521.502991,227.494720 520.423401,221.781189 515.171997,217.556366 
	C515.171997,241.578888 515.171997,265.185486 515.171997,288.792084 
	C520.593445,270.902191 523.994385,252.769165 522.744873,233.129730 
z"/>
<path fill="#E3B24E" opacity="1.000000" stroke="none" 
	d="
M195.791412,490.928101 
	C192.948959,500.576569 190.200562,509.830933 187.448944,519.084351 
	C186.804504,521.251526 186.737778,523.452148 183.167282,523.278992 
	C179.774475,523.114380 178.762878,521.758484 177.902771,518.800049 
	C175.120636,509.230469 171.986237,499.763306 167.845215,490.149200 
	C164.941010,499.787201 161.949097,509.400269 159.192871,519.080383 
	C158.483887,521.570374 157.903931,523.149353 154.736526,523.123596 
	C151.610779,523.098328 150.546417,521.975830 149.726532,519.072388 
	C146.064148,506.102814 142.086624,493.222382 138.245468,480.303009 
	C137.881104,479.077515 137.673813,477.805267 137.384689,476.515015 
	C142.368179,474.956238 145.201797,475.740204 146.470169,481.377563 
	C148.545822,490.602814 151.511658,499.627838 155.111008,508.852020 
	C158.039749,499.204224 160.853241,489.518402 164.010910,479.946136 
	C164.535919,478.354614 166.341705,476.652527 167.943405,476.072662 
	C170.422546,475.175140 172.069412,476.407990 172.902023,479.298431 
	C175.839905,489.497314 179.091400,499.605804 182.549210,510.801697 
	C185.456421,500.265259 188.112366,490.828308 190.654602,481.360870 
	C192.421890,474.779297 192.418564,474.721008 199.840851,476.217651 
	C198.518448,481.002502 197.201355,485.768097 195.791412,490.928101 
z"/>
<path fill="#E1AD45" opacity="1.000000" stroke="none" 
	d="
M718.366577,499.568787 
	C717.970764,503.693420 715.770935,504.939362 712.203918,504.924469 
	C694.725403,504.851410 677.246094,504.949738 659.767639,504.870911 
	C653.602234,504.843109 650.078735,501.405914 650.082886,495.869690 
	C650.087097,490.279205 653.519531,486.922852 659.735657,486.897400 
	C679.004700,486.818542 698.274231,486.868530 718.384949,486.868530 
	C718.384949,491.288055 718.384949,495.229156 718.366577,499.568787 
z"/>
<path fill="#E3B24E" opacity="1.000000" stroke="none" 
	d="
M517.174194,163.762177 
	C519.578735,166.955154 521.781372,169.851593 523.984070,172.748032 
	C524.342163,172.698669 524.700317,172.649323 525.058411,172.599960 
	C525.058411,161.969604 525.058411,151.339233 525.058411,140.475220 
	C527.819397,140.475220 529.752502,140.475220 532.175476,140.475220 
	C532.175476,155.873154 532.175476,171.243408 532.175476,186.867462 
	C528.397888,188.154434 525.487854,187.882248 522.867981,184.092606 
	C515.772705,173.829376 508.310638,163.819717 500.230194,152.654022 
	C500.230194,164.759735 500.230194,175.718872 500.230194,187.078003 
	C497.737457,187.078003 495.839325,187.078003 493.481445,187.078003 
	C493.481445,171.766190 493.481445,156.387634 493.481445,140.711807 
	C497.145477,139.569290 500.055054,139.720764 502.627075,143.644943 
	C507.093018,150.458801 512.158264,156.879868 517.174194,163.762177 
z"/>
<path fill="#E1AD43" opacity="1.000000" stroke="none" 
	d="
M513.807007,308.006409 
	C519.394409,308.488312 521.378906,311.773834 521.366821,316.505920 
	C521.332336,329.976593 521.186768,343.447021 521.075928,356.917450 
	C521.022156,363.450409 517.998840,367.076630 512.693481,367.004425 
	C507.707703,366.936584 504.985962,363.397461 504.978607,356.890350 
	C504.963409,343.416687 504.961456,329.943054 504.976532,316.469391 
	C504.983337,310.400421 506.953583,308.445221 513.807007,308.006409 
z"/>
<path fill="#E3B14C" opacity="1.000000" stroke="none" 
	d="
M880.188843,481.224518 
	C872.513550,481.462128 865.207642,481.462128 857.448853,481.462128 
	C857.448853,485.988342 857.448853,490.001465 857.448853,494.590485 
	C864.421021,494.590485 871.197571,494.590485 878.401855,494.590485 
	C878.401855,497.033813 878.401855,498.915558 878.401855,501.470825 
	C871.618286,501.470825 864.716675,501.470825 857.073608,501.470825 
	C857.073608,505.878448 856.804199,509.667206 857.252136,513.369141 
	C857.372803,514.366333 859.646790,515.789246 860.975891,515.838440 
	C867.756287,516.089478 874.550964,515.954407 881.666504,515.954407 
	C881.666504,518.302612 881.666504,520.197388 881.666504,522.449707 
	C871.141479,522.449707 860.726868,522.449707 849.857971,522.449707 
	C849.857971,506.814972 849.857971,491.139008 849.857971,475.170685 
	C860.083801,475.170685 870.159729,475.170685 880.820618,475.170685 
	C880.729553,477.190094 880.643860,479.088501 880.188843,481.224518 
z"/>
<path fill="#E3B14C" opacity="1.000000" stroke="none" 
	d="
M506.868561,857.296265 
	C511.637543,858.910828 516.086670,860.277649 520.506165,861.734314 
	C528.170776,864.260437 531.419983,868.556885 531.009094,875.501526 
	C530.614563,882.169739 525.943970,887.026611 518.576599,888.430115 
	C510.067444,890.051086 500.757050,887.353638 494.747040,881.238464 
	C495.972870,879.677856 497.245239,878.057983 498.167297,876.884094 
	C502.625641,878.632568 506.493378,880.609802 510.599121,881.592163 
	C513.188538,882.211609 516.458069,882.035522 518.820435,880.929932 
	C520.827332,879.990601 522.963074,877.317993 523.194702,875.209351 
	C523.391357,873.419006 521.368286,870.666077 519.574097,869.550903 
	C517.123352,868.027466 513.996094,867.491394 511.092896,866.814758 
	C500.270630,864.292603 495.251892,858.948730 496.172943,850.730896 
	C497.026398,843.115906 503.629791,838.918152 514.309631,838.976013 
	C520.219543,839.007996 525.403015,840.666443 530.189209,845.123779 
	C528.967590,846.679260 527.803711,848.161255 526.639832,849.643311 
	C526.580872,849.110046 526.521973,848.576782 526.463074,848.043518 
	C520.834106,847.475220 515.114868,846.018127 509.600311,846.577637 
	C503.547546,847.191711 502.416473,852.290833 506.868561,857.296265 
z"/>
<path fill="#E2AE46" opacity="1.000000" stroke="none" 
	d="
M372.044434,495.717957 
	C375.345734,498.456940 376.432068,501.591583 374.962555,505.267456 
	C373.464569,509.014496 370.407684,510.145538 366.530029,510.038727 
	C360.937439,509.884583 355.337402,509.999359 349.443390,509.999359 
	C349.443390,504.517578 349.443390,499.636505 349.443390,493.583466 
	C357.109833,494.245758 364.413208,494.876678 372.044434,495.717957 
z"/>
<path fill="#E3B14C" opacity="1.000000" stroke="none" 
	d="
M509.048401,406.853821 
	C503.671753,397.139862 505.657715,388.598969 515.266724,382.779938 
	C510.283722,393.036499 516.104065,399.477722 521.316223,406.446106 
	C527.619934,414.873840 524.244507,425.760193 513.414612,430.947754 
	C518.221436,421.467255 515.394775,413.950623 509.048401,406.853821 
z"/>
<path fill="#E0AC42" opacity="1.000000" stroke="none" 
	d="
M222.067810,494.213837 
	C225.159760,494.212708 227.779465,494.212708 230.717789,494.212708 
	C230.717789,499.502716 230.717789,504.260590 230.717789,509.585754 
	C225.366653,509.585754 219.902130,510.124939 214.609116,509.404358 
	C210.808090,508.886871 209.023880,505.345825 209.118973,501.487732 
	C209.212875,497.678650 211.477753,495.288635 215.141800,494.558411 
	C217.232819,494.141663 219.440460,494.310059 222.067810,494.213837 
z"/>
<path fill="#E2AE46" opacity="1.000000" stroke="none" 
	d="
M526.689453,447.505676 
	C523.829468,451.136444 504.777191,452.445587 501.775116,449.591614 
	C498.315765,446.302795 499.407043,440.106781 504.283417,439.308136 
	C510.205353,438.338226 516.481445,438.559692 522.469116,439.324554 
	C526.085449,439.786469 527.545410,443.284027 526.689453,447.505676 
z"/>
<path fill="#E3B24E" opacity="1.000000" stroke="none" 
	d="
M476.287567,410.306396 
	C477.174042,405.080688 479.462280,401.292755 485.111725,398.315002 
	C480.286621,407.640808 484.813934,413.694946 489.598755,420.087555 
	C495.194794,427.563995 491.972107,436.670288 482.613800,440.458038 
	C486.099731,433.265747 484.197296,427.279755 479.995789,421.243866 
	C477.942078,418.293488 477.450592,414.255646 476.287567,410.306396 
z"/>
<path fill="#E3B14C" opacity="1.000000" stroke="none" 
	d="
M547.084229,436.181213 
	C545.088013,431.996429 543.317078,428.090179 541.083069,424.469666 
	C536.236572,416.615265 538.343140,408.161591 546.866028,404.222168 
	C543.177002,411.516815 545.554993,417.079285 550.241516,422.661285 
	C557.006714,430.719208 554.691650,440.720123 545.794678,444.270355 
	C546.229797,441.709991 546.664673,439.149628 547.084229,436.181213 
z"/>
<path fill="#E3B24E" opacity="1.000000" stroke="none" 
	d="
M534.141968,254.657593 
	C533.420532,253.759552 532.909363,252.546631 532.110046,250.693954 
	C531.538452,242.703369 531.255005,235.352539 530.971558,228.001709 
	C531.616577,227.554352 532.261597,227.106979 532.950439,226.339188 
	C537.445801,232.938110 536.477539,240.513092 535.593567,248.052109 
	C535.345459,250.168411 534.774902,252.246918 534.141968,254.657593 
z"/>
<path fill="#FCFAF8" opacity="1.000000" stroke="none" 
	d="
M514.575928,570.495117 
	C492.300415,570.497437 480.527191,550.630432 490.968872,531.058960 
	C494.089050,525.210632 498.032043,519.799927 501.619141,514.202271 
	C504.914398,509.059998 508.238098,503.935974 511.994263,498.114105 
	C514.773193,501.109497 518.362000,504.092010 520.825928,507.818359 
	C525.949036,515.566162 531.191956,523.374329 535.100952,531.756775 
	C543.570068,549.918213 534.669495,566.469910 514.575928,570.495117 
M503.007477,530.539062 
	C501.405518,533.616272 499.400726,536.554871 498.284302,539.799133 
	C495.851746,546.868286 497.811066,553.491699 502.940979,557.291199 
	C508.361847,561.306213 515.679077,561.637146 521.155273,558.114990 
	C526.672302,554.566589 529.408142,547.592957 527.619934,540.600525 
	C525.221741,531.222900 519.128296,524.007263 513.203491,516.070557 
	C509.692322,521.051575 506.557404,525.498962 503.007477,530.539062 
z"/>
<path fill="#FDFCFB" opacity="1.000000" stroke="none" 
	d="
M531.717163,785.975952 
	C530.003540,791.884399 529.372559,798.067871 526.355164,802.695312 
	C519.930603,812.547791 507.285217,812.036560 500.435608,802.453308 
	C492.979553,792.021484 494.674805,771.968018 503.781433,762.876709 
	C509.565277,757.102539 517.451416,757.013367 523.340881,762.689270 
	C529.831604,768.944641 531.078735,777.137573 531.717163,785.975952 
z"/>
<path fill="#FCF9F3" opacity="1.000000" stroke="none" 
	d="
M814.722534,515.032349 
	C813.447449,516.565063 812.094788,518.642029 810.659180,518.700989 
	C802.715820,519.027100 794.748596,518.982361 786.799927,518.732117 
	C785.633606,518.695435 784.523132,516.881531 783.386841,515.889954 
	C784.550049,514.915161 785.688232,513.132507 786.880493,513.095581 
	C795.160645,512.838867 803.452759,512.888916 811.738647,513.010010 
	C812.702393,513.024048 813.651062,514.074829 814.722534,515.032349 
z"/>
<path fill="#FCF9F3" opacity="1.000000" stroke="none" 
	d="
M511.968964,278.986816 
	C511.972198,283.634583 511.972198,287.785492 511.972198,291.936432 
	C511.582336,292.004761 511.192474,292.073090 510.802612,292.141418 
	C508.534332,280.201477 505.627869,268.336823 504.208038,256.296814 
	C503.151428,247.336700 503.496918,238.104706 504.269653,229.083878 
	C504.614807,225.054382 507.540955,221.245972 509.295715,217.337219 
	C509.805573,217.518906 510.315430,217.700592 510.825256,217.882294 
	C511.205414,238.084839 511.585571,258.287415 511.968964,278.986816 
z"/>
<path fill="#FCF9F3" opacity="1.000000" stroke="none" 
	d="
M522.793823,233.573761 
	C523.994385,252.769165 520.593445,270.902191 515.171997,288.792084 
	C515.171997,265.185486 515.171997,241.578888 515.171997,217.556366 
	C520.423401,221.781189 521.502991,227.494720 522.793823,233.573761 
z"/>
<path fill="#FCF9F3" opacity="1.000000" stroke="none" 
	d="
M530.782227,227.718689 
	C531.255005,235.352539 531.538452,242.703369 531.826172,250.503937 
	C529.229309,259.942169 526.628174,268.930603 524.027039,277.919067 
	C523.442444,277.813843 522.857849,277.708588 522.273254,277.603363 
	C522.678833,274.976135 523.014648,272.335938 523.501587,269.723877 
	C526.105957,255.753738 527.526978,241.732712 525.058777,227.592789 
	C524.605957,224.998505 523.539001,222.511414 522.838928,219.525177 
	C522.922302,219.075546 523.041809,218.950729 523.041809,218.950729 
	C525.558838,221.779053 528.075806,224.607361 530.782227,227.718689 
z"/>
<path fill="#FCF9F3" opacity="1.000000" stroke="none" 
	d="
M503.142578,219.133087 
	C497.081818,235.085556 499.977692,251.164993 502.446991,267.242157 
	C503.063141,271.253784 503.605530,275.276764 503.051392,279.594849 
	C502.082336,276.820801 501.090668,274.054413 500.148224,271.271362 
	C496.137024,259.426086 492.874176,247.443054 493.939240,234.743362 
	C494.474792,228.357574 496.807892,222.855347 502.601868,218.992706 
	C503.004974,218.999680 503.142578,219.133087 503.142578,219.133087 
z"/>
<path fill="#FCF9F3" opacity="1.000000" stroke="none" 
	d="
M502.938110,218.931030 
	C503.064423,218.647644 503.257568,218.432877 503.450745,218.218109 
	C503.489960,218.464279 503.529205,218.710480 503.355530,219.044876 
	C503.142578,219.133087 503.004974,218.999680 502.938110,218.931030 
z"/>
<path fill="#FCF9F3" opacity="1.000000" stroke="none" 
	d="
M522.051025,217.942810 
	C522.051025,217.942810 521.642944,217.843658 521.642944,217.843658 
	C521.642944,217.843658 521.830444,217.843979 521.926392,217.909088 
	C522.022278,217.974182 522.051025,217.942810 522.051025,217.942810 
z"/>
<path fill="#FCF9F3" opacity="1.000000" stroke="none" 
	d="
M522.860840,219.136353 
	C522.546204,218.960739 522.293030,218.724304 522.045410,218.215332 
	C522.051025,217.942810 522.022278,217.974182 522.005737,217.985535 
	C522.309937,218.099396 522.590881,218.268005 522.937012,218.726730 
	C523.041809,218.950729 522.922302,219.075546 522.860840,219.136353 
z"/>
<path fill="#D05935" opacity="1.000000" stroke="none" 
	d="
M503.214966,530.242676 
	C506.557404,525.498962 509.692322,521.051575 513.203491,516.070557 
	C519.128296,524.007263 525.221741,531.222900 527.619934,540.600525 
	C529.408142,547.592957 526.672302,554.566589 521.155273,558.114990 
	C515.679077,561.637146 508.361847,561.306213 502.940979,557.291199 
	C497.811066,553.491699 495.851746,546.868286 498.284302,539.799133 
	C499.400726,536.554871 501.405518,533.616272 503.214966,530.242676 
z"/>
</svg>